<mxfile host="app.diagrams.net" modified="2024-05-02T15:15:50.827Z" agent="Mozilla/5.0 (Windows NT 10.0; Win64; x64) AppleWebKit/537.36 (KHTML, like Gecko) Chrome/124.0.0.0 Safari/537.36 Edg/124.0.0.0" etag="LrgyaldVz__1NtDQZOKK" version="24.3.1" type="device">
  <diagram name="Page-1" id="l2ZglB6DtqD2g9pgpsW6">
    <mxGraphModel dx="1682" dy="473" grid="1" gridSize="10" guides="1" tooltips="1" connect="1" arrows="1" fold="1" page="1" pageScale="1" pageWidth="850" pageHeight="1100" math="0" shadow="0">
      <root>
        <mxCell id="0" />
        <mxCell id="1" parent="0" />
        <mxCell id="1CZvQvrtwvBUsBAOlAup-1" value="Barber Management" style="rounded=0;whiteSpace=wrap;html=1;" vertex="1" parent="1">
          <mxGeometry x="340" width="120" height="40" as="geometry" />
        </mxCell>
        <mxCell id="1CZvQvrtwvBUsBAOlAup-5" value="Has" style="rhombus;whiteSpace=wrap;html=1;" vertex="1" parent="1">
          <mxGeometry x="360" y="70" width="80" height="70" as="geometry" />
        </mxCell>
        <mxCell id="1CZvQvrtwvBUsBAOlAup-24" value="Manager" style="rounded=0;whiteSpace=wrap;html=1;" vertex="1" parent="1">
          <mxGeometry x="90" y="360" width="120" height="40" as="geometry" />
        </mxCell>
        <mxCell id="1CZvQvrtwvBUsBAOlAup-29" value="UserID" style="ellipse;whiteSpace=wrap;html=1;" vertex="1" parent="1">
          <mxGeometry x="-30" y="365" width="70" height="30" as="geometry" />
        </mxCell>
        <mxCell id="1CZvQvrtwvBUsBAOlAup-30" value="" style="endArrow=none;html=1;rounded=0;entryX=0;entryY=0.5;entryDx=0;entryDy=0;exitX=1;exitY=0.5;exitDx=0;exitDy=0;" edge="1" parent="1" source="1CZvQvrtwvBUsBAOlAup-29" target="1CZvQvrtwvBUsBAOlAup-24">
          <mxGeometry width="50" height="50" relative="1" as="geometry">
            <mxPoint x="50" y="380" as="sourcePoint" />
            <mxPoint x="60" y="455" as="targetPoint" />
          </mxGeometry>
        </mxCell>
        <mxCell id="1CZvQvrtwvBUsBAOlAup-31" value="UserName" style="ellipse;whiteSpace=wrap;html=1;" vertex="1" parent="1">
          <mxGeometry x="40" y="290" width="70" height="30" as="geometry" />
        </mxCell>
        <mxCell id="1CZvQvrtwvBUsBAOlAup-32" value="" style="endArrow=none;html=1;rounded=0;entryX=0.367;entryY=0;entryDx=0;entryDy=0;exitX=0.743;exitY=0.967;exitDx=0;exitDy=0;exitPerimeter=0;entryPerimeter=0;" edge="1" parent="1" source="1CZvQvrtwvBUsBAOlAup-31" target="1CZvQvrtwvBUsBAOlAup-24">
          <mxGeometry width="50" height="50" relative="1" as="geometry">
            <mxPoint x="190" y="295" as="sourcePoint" />
            <mxPoint x="230" y="295" as="targetPoint" />
          </mxGeometry>
        </mxCell>
        <mxCell id="1CZvQvrtwvBUsBAOlAup-39" value="" style="endArrow=none;html=1;rounded=0;entryX=0.5;entryY=1;entryDx=0;entryDy=0;" edge="1" parent="1" source="1CZvQvrtwvBUsBAOlAup-5" target="1CZvQvrtwvBUsBAOlAup-1">
          <mxGeometry width="50" height="50" relative="1" as="geometry">
            <mxPoint x="430" y="330" as="sourcePoint" />
            <mxPoint x="470" y="286" as="targetPoint" />
          </mxGeometry>
        </mxCell>
        <mxCell id="1CZvQvrtwvBUsBAOlAup-40" value="" style="endArrow=none;html=1;rounded=0;entryX=0.5;entryY=1;entryDx=0;entryDy=0;exitX=0.5;exitY=0;exitDx=0;exitDy=0;" edge="1" parent="1" source="1CZvQvrtwvBUsBAOlAup-41" target="1CZvQvrtwvBUsBAOlAup-5">
          <mxGeometry width="50" height="50" relative="1" as="geometry">
            <mxPoint x="400" y="310" as="sourcePoint" />
            <mxPoint x="360" y="220" as="targetPoint" />
          </mxGeometry>
        </mxCell>
        <mxCell id="1CZvQvrtwvBUsBAOlAup-41" value="User" style="rounded=0;whiteSpace=wrap;html=1;" vertex="1" parent="1">
          <mxGeometry x="340" y="200" width="120" height="40" as="geometry" />
        </mxCell>
        <mxCell id="1CZvQvrtwvBUsBAOlAup-42" value="UserRole" style="ellipse;whiteSpace=wrap;html=1;" vertex="1" parent="1">
          <mxGeometry x="510" y="205" width="70" height="30" as="geometry" />
        </mxCell>
        <mxCell id="1CZvQvrtwvBUsBAOlAup-43" value="" style="endArrow=none;html=1;rounded=0;entryX=1;entryY=0.5;entryDx=0;entryDy=0;" edge="1" target="1CZvQvrtwvBUsBAOlAup-41" parent="1">
          <mxGeometry width="50" height="50" relative="1" as="geometry">
            <mxPoint x="510" y="220" as="sourcePoint" />
            <mxPoint x="600" y="-20" as="targetPoint" />
          </mxGeometry>
        </mxCell>
        <mxCell id="1CZvQvrtwvBUsBAOlAup-44" value="UserID" style="ellipse;whiteSpace=wrap;html=1;" vertex="1" parent="1">
          <mxGeometry x="220" y="205" width="70" height="30" as="geometry" />
        </mxCell>
        <mxCell id="1CZvQvrtwvBUsBAOlAup-45" value="" style="endArrow=none;html=1;rounded=0;entryX=0;entryY=0.5;entryDx=0;entryDy=0;exitX=1;exitY=0.5;exitDx=0;exitDy=0;" edge="1" source="1CZvQvrtwvBUsBAOlAup-44" target="1CZvQvrtwvBUsBAOlAup-41" parent="1">
          <mxGeometry width="50" height="50" relative="1" as="geometry">
            <mxPoint x="300" y="220" as="sourcePoint" />
            <mxPoint x="310" y="295" as="targetPoint" />
          </mxGeometry>
        </mxCell>
        <mxCell id="1CZvQvrtwvBUsBAOlAup-46" value="UserName" style="ellipse;whiteSpace=wrap;html=1;" vertex="1" parent="1">
          <mxGeometry x="290" y="130" width="70" height="30" as="geometry" />
        </mxCell>
        <mxCell id="1CZvQvrtwvBUsBAOlAup-47" value="" style="endArrow=none;html=1;rounded=0;entryX=0.367;entryY=0;entryDx=0;entryDy=0;exitX=0.743;exitY=0.967;exitDx=0;exitDy=0;exitPerimeter=0;entryPerimeter=0;" edge="1" source="1CZvQvrtwvBUsBAOlAup-46" target="1CZvQvrtwvBUsBAOlAup-41" parent="1">
          <mxGeometry width="50" height="50" relative="1" as="geometry">
            <mxPoint x="440" y="135" as="sourcePoint" />
            <mxPoint x="480" y="135" as="targetPoint" />
          </mxGeometry>
        </mxCell>
        <mxCell id="1CZvQvrtwvBUsBAOlAup-48" value="UserPass" style="ellipse;whiteSpace=wrap;html=1;" vertex="1" parent="1">
          <mxGeometry x="460" y="130" width="70" height="30" as="geometry" />
        </mxCell>
        <mxCell id="1CZvQvrtwvBUsBAOlAup-49" value="" style="endArrow=none;html=1;rounded=0;entryX=0;entryY=1;entryDx=0;entryDy=0;" edge="1" target="1CZvQvrtwvBUsBAOlAup-48" parent="1">
          <mxGeometry width="50" height="50" relative="1" as="geometry">
            <mxPoint x="430" y="200" as="sourcePoint" />
            <mxPoint x="480" y="150" as="targetPoint" />
          </mxGeometry>
        </mxCell>
        <mxCell id="1CZvQvrtwvBUsBAOlAup-58" value="Staff" style="rounded=0;whiteSpace=wrap;html=1;" vertex="1" parent="1">
          <mxGeometry x="545" y="360" width="120" height="40" as="geometry" />
        </mxCell>
        <mxCell id="1CZvQvrtwvBUsBAOlAup-59" value="" style="endArrow=none;html=1;rounded=0;entryX=1;entryY=0.5;entryDx=0;entryDy=0;" edge="1" target="1CZvQvrtwvBUsBAOlAup-58" parent="1">
          <mxGeometry width="50" height="50" relative="1" as="geometry">
            <mxPoint x="715" y="380" as="sourcePoint" />
            <mxPoint x="805" y="140" as="targetPoint" />
          </mxGeometry>
        </mxCell>
        <mxCell id="1CZvQvrtwvBUsBAOlAup-62" value="" style="endArrow=none;html=1;rounded=0;entryX=0;entryY=1;entryDx=0;entryDy=0;" edge="1" target="1CZvQvrtwvBUsBAOlAup-65" parent="1">
          <mxGeometry width="50" height="50" relative="1" as="geometry">
            <mxPoint x="635" y="360" as="sourcePoint" />
            <mxPoint x="685" y="310" as="targetPoint" />
          </mxGeometry>
        </mxCell>
        <mxCell id="1CZvQvrtwvBUsBAOlAup-65" value="UserPass" style="ellipse;whiteSpace=wrap;html=1;" vertex="1" parent="1">
          <mxGeometry x="665" y="290" width="70" height="30" as="geometry" />
        </mxCell>
        <mxCell id="1CZvQvrtwvBUsBAOlAup-66" value="UserRole" style="ellipse;whiteSpace=wrap;html=1;" vertex="1" parent="1">
          <mxGeometry x="715" y="365" width="70" height="30" as="geometry" />
        </mxCell>
        <mxCell id="1CZvQvrtwvBUsBAOlAup-67" value="" style="endArrow=none;html=1;rounded=0;entryX=0.5;entryY=1;entryDx=0;entryDy=0;" edge="1" parent="1" target="1CZvQvrtwvBUsBAOlAup-41">
          <mxGeometry width="50" height="50" relative="1" as="geometry">
            <mxPoint x="400" y="280" as="sourcePoint" />
            <mxPoint x="400" y="300" as="targetPoint" />
          </mxGeometry>
        </mxCell>
        <mxCell id="1CZvQvrtwvBUsBAOlAup-68" value="" style="endArrow=none;html=1;rounded=0;" edge="1" parent="1">
          <mxGeometry width="50" height="50" relative="1" as="geometry">
            <mxPoint x="610" y="280" as="sourcePoint" />
            <mxPoint x="400" y="280" as="targetPoint" />
          </mxGeometry>
        </mxCell>
        <mxCell id="1CZvQvrtwvBUsBAOlAup-69" value="" style="endArrow=none;html=1;rounded=0;" edge="1" parent="1">
          <mxGeometry width="50" height="50" relative="1" as="geometry">
            <mxPoint x="400" y="280" as="sourcePoint" />
            <mxPoint x="160" y="280" as="targetPoint" />
          </mxGeometry>
        </mxCell>
        <mxCell id="1CZvQvrtwvBUsBAOlAup-70" value="" style="endArrow=none;html=1;rounded=0;exitX=0.583;exitY=0.025;exitDx=0;exitDy=0;exitPerimeter=0;" edge="1" parent="1" source="1CZvQvrtwvBUsBAOlAup-24">
          <mxGeometry width="50" height="50" relative="1" as="geometry">
            <mxPoint x="160" y="350" as="sourcePoint" />
            <mxPoint x="160" y="280" as="targetPoint" />
          </mxGeometry>
        </mxCell>
        <mxCell id="1CZvQvrtwvBUsBAOlAup-71" value="" style="endArrow=none;html=1;rounded=0;entryX=0.558;entryY=0.05;entryDx=0;entryDy=0;entryPerimeter=0;" edge="1" parent="1" target="1CZvQvrtwvBUsBAOlAup-58">
          <mxGeometry width="50" height="50" relative="1" as="geometry">
            <mxPoint x="610" y="280" as="sourcePoint" />
            <mxPoint x="420" y="300" as="targetPoint" />
          </mxGeometry>
        </mxCell>
        <mxCell id="1CZvQvrtwvBUsBAOlAup-72" value="UserPass" style="ellipse;whiteSpace=wrap;html=1;" vertex="1" parent="1">
          <mxGeometry x="-30" y="310" width="70" height="30" as="geometry" />
        </mxCell>
        <mxCell id="1CZvQvrtwvBUsBAOlAup-73" value="UserRole" style="ellipse;whiteSpace=wrap;html=1;" vertex="1" parent="1">
          <mxGeometry x="-20" y="420" width="70" height="30" as="geometry" />
        </mxCell>
      </root>
    </mxGraphModel>
  </diagram>
</mxfile>
